<?xml version="1.0" encoding="UTF-8"?>
<svg width="560px" height="164px" viewBox="0 0 560 164" version="1.1" xmlns="http://www.w3.org/2000/svg" xmlns:xlink="http://www.w3.org/1999/xlink">
    <!-- Generator: Sketch 46.2 (44496) - http://www.bohemiancoding.com/sketch -->
    <title>espresso</title>
    <desc>Created with Sketch.</desc>
    <defs>
        <circle id="path-1" cx="36.5" cy="35.5" r="35.5"></circle>
        <linearGradient x1="42.6810299%" y1="-11.3472921%" x2="60.8719308%" y2="138.004808%" id="linearGradient-2">
            <stop stop-color="#D9761F" offset="0%"></stop>
            <stop stop-color="#93450E" offset="100%"></stop>
        </linearGradient>
    </defs>
    <g id="Page-1" stroke="none" stroke-width="1" fill="none" fill-rule="evenodd">
        <g id="espresso-copy-3" transform="translate(-89.000000, -65.000000)">
            <g id="espresso" transform="translate(89.000000, 63.000000)">
                <g id="Group" opacity="0.200000003" transform="translate(34.000000, 66.000000)">
                    <g id="Oval-2">
                        <circle stroke-opacity="0.205531024" stroke="#9B9B9B" stroke-width="8" cx="36.5" cy="35.5" r="39.5"></circle>
                        <use stroke="#FFFFFF" stroke-width="10" xlink:href="#path-1"></use>
                    </g>
                    <path d="M47.0155817,66.4546231 L44.1359473,66.9666666 L44.5266049,69.1636497 L47.8965943,68.5644135 L48.0641411,69.5066644 L43.5355676,70.3119149 L42.2909343,63.3123363 L46.785856,62.5130696 L46.9551124,63.4649354 L43.6187748,64.0581878 L43.9701102,66.0340304 L46.8497445,65.5219869 L47.0155817,66.4546231 Z M51.5936493,62.7987824 L51.7991492,59.8271076 L53.0676683,59.2790839 L52.6056108,63.3190153 L55.9320066,65.7860927 L54.6724523,66.3302435 L52.314521,64.4181475 L52.0905902,67.4456557 L50.8175888,67.9956159 L51.3012325,63.8825309 L48.0473809,61.447941 L49.3069352,60.9037903 L51.5936493,62.7987824 Z M57.5961623,60.6627484 L59.2189346,62.8513796 L58.2775878,63.5493462 L54.0432574,57.8385092 L55.9534068,56.4222187 C56.240366,56.2135038 56.5353148,56.060663 56.8382622,55.9636917 C57.1412096,55.8667204 57.4369869,55.8297702 57.725603,55.8528398 C58.0142191,55.8759094 58.2884969,55.960261 58.5484446,56.105897 C58.8083923,56.251533 59.04015,56.4616283 59.2437246,56.7361892 C59.4414828,57.0029054 59.5708223,57.2798215 59.6317469,57.5669456 C59.6926715,57.8540698 59.6917612,58.1384087 59.629016,58.4199708 C59.5662707,58.701533 59.4440139,58.9725102 59.2622419,59.2329105 C59.0804698,59.4933109 58.8480465,59.7304798 58.564965,59.9444245 L57.5961623,60.6627484 Z M57.0319727,59.9018265 L58.0007754,59.1835025 C58.1602822,59.0652354 58.2848565,58.9353849 58.3745021,58.7939473 C58.4641478,58.6525096 58.5214321,58.505688 58.5463569,58.353478 C58.5712818,58.2012681 58.5626856,58.0475743 58.5205681,57.892392 C58.4784506,57.7372097 58.4050452,57.5890194 58.3003497,57.4478167 C58.1898378,57.2987694 58.0645186,57.17894 57.9243883,57.088325 C57.7842581,56.9977099 57.6362981,56.9402565 57.4805039,56.9159631 C57.3247096,56.8916696 57.1656395,56.9012129 57.0032887,56.9445931 C56.8409378,56.9879734 56.6790421,57.0674884 56.5175965,57.1831407 L55.5487938,57.9014646 L57.0319727,59.9018265 Z M63.4684015,54.3032551 L62.6971072,55.2113046 L64.8109274,57.0067766 L64.0522773,57.8999401 L58.6337522,53.2974627 L60.0878316,51.585566 C60.3263383,51.3097989 60.5792752,51.0836668 60.84665,50.9071629 C61.1140247,50.7306591 61.3880202,50.6142395 61.6686446,50.5579008 C61.9492689,50.501562 62.2313389,50.5126553 62.5148628,50.591181 C62.7983868,50.6697066 63.0766008,50.8248726 63.3495132,51.0566835 C63.5331088,51.2126291 63.6794085,51.3785373 63.7884166,51.5544132 C63.8974247,51.7302892 63.9758336,51.9132729 64.0236456,52.1033699 C64.0714577,52.2934669 64.0896317,52.4882839 64.0781683,52.6878267 C64.0667049,52.8873696 64.0310596,53.087724 63.9712312,53.288896 L67.2223991,54.0772273 L67.2670572,54.1151598 L66.4578304,55.0678675 L63.4684015,54.3032551 Z M61.9751334,54.5980624 L62.6737237,53.7756077 C62.800166,53.6267464 62.8949814,53.4723799 62.9581726,53.3125034 C63.0213638,53.152627 63.0523424,52.9942214 63.0511093,52.8372819 C63.0498762,52.6803424 63.0138906,52.5291219 62.9431516,52.3836161 C62.8724125,52.2381102 62.7638545,52.1031918 62.6174742,51.9788569 C62.4661318,51.8503072 62.3121389,51.7600801 62.1554908,51.7081731 C61.9988427,51.656266 61.8434188,51.6406329 61.6892143,51.6612733 C61.5350099,51.6819137 61.3837036,51.7381133 61.2352907,51.8298737 C61.0868779,51.9216342 60.9450509,52.0446111 60.8098054,52.1988082 L60.1143761,53.0175414 L61.9751334,54.5980624 Z M67.501017,45.876726 L66.1656839,48.4789112 L68.1509904,49.4976879 L69.7137092,46.4523927 L70.5651755,46.8893298 L68.4652025,50.981581 L62.1400244,47.7357629 L64.2243925,43.6739212 L65.0845472,44.1153168 L63.5374333,47.1302025 L65.322906,48.0464327 L66.6582391,45.4442475 L67.501017,45.876726 Z M70.2465231,39.3230852 C70.0822031,39.2824422 69.9292333,39.2806542 69.787609,39.3177211 C69.6459848,39.354788 69.5123381,39.4240065 69.3866651,39.5253786 C69.2609921,39.6267507 69.1413089,39.7547519 69.0276119,39.9093859 C68.913915,40.0640199 68.8020371,40.2350292 68.691975,40.4224188 C68.5457577,40.6746389 68.38156,40.9182157 68.1993767,41.1531566 C68.0171935,41.3880974 67.8159776,41.5881472 67.5957232,41.7533117 C67.3754687,41.9184763 67.1365477,42.0371047 66.8789531,42.1092006 C66.6213585,42.1812964 66.3440454,42.1806094 66.0470055,42.1071393 C65.7499656,42.0336693 65.4995667,41.9038318 65.2958014,41.717623 C65.0920361,41.5314141 64.9345701,41.3105515 64.8233987,41.0550286 C64.7122273,40.7995056 64.6475743,40.5186061 64.629438,40.2123214 C64.6113017,39.9060368 64.6405313,39.5980592 64.7171277,39.2883793 C64.7991952,38.9565793 64.9273351,38.6588148 65.1015511,38.3950768 C65.2757671,38.1313387 65.4820717,37.9141046 65.7204709,37.7433681 C65.9588702,37.5726315 66.2224678,37.455915 66.5112716,37.3932151 C66.8000753,37.3305152 67.1012835,37.3362742 67.414905,37.4104922 L67.1335318,38.5480862 C66.9558239,38.5208984 66.7878527,38.5187532 66.6296132,38.5416506 C66.4713737,38.564548 66.3270244,38.6160295 66.196561,38.6960968 C66.0660976,38.7761642 65.9536692,38.8850018 65.8592726,39.022613 C65.764876,39.1602243 65.6930586,39.3285673 65.643818,39.5276473 C65.6016118,39.6982872 65.5846523,39.8617559 65.5929389,40.0180582 C65.6012254,40.1743605 65.6349365,40.3159911 65.694073,40.4429542 C65.7532095,40.5699172 65.8353913,40.6782674 65.940621,40.7680081 C66.0458506,40.8577487 66.1743035,40.9213764 66.3259835,40.958893 C66.4871434,40.9987544 66.6371319,40.9922601 66.7759534,40.93941 C66.9147748,40.8865598 67.0448371,40.8047184 67.1661441,40.6938831 C67.2874511,40.5830478 67.4017914,40.4495335 67.5091684,40.2933363 C67.6165453,40.1371391 67.7201493,39.9724665 67.8199835,39.7993137 C67.9764287,39.5328568 68.1494949,39.2839287 68.3391874,39.0525218 C68.5288798,38.8211149 68.7360331,38.6275637 68.9606537,38.4718623 C69.1852742,38.316161 69.4273803,38.2083802 69.6869793,38.1485167 C69.9465783,38.0886532 70.2248935,38.0954564 70.5219335,38.1689264 C70.8284534,38.2447412 71.0826068,38.3763457 71.2844013,38.5637438 C71.4861958,38.7511418 71.6391257,38.9733974 71.7431955,39.2305172 C71.8472654,39.4876369 71.9040268,39.7699378 71.9134815,40.0774285 C71.9229363,40.3849191 71.8889752,40.6950797 71.8115972,41.0079196 C71.7592302,41.2196396 71.6867152,41.4246961 71.5940499,41.6230953 C71.5013846,41.8214945 71.3903303,42.0061205 71.2608838,42.176979 C71.1314372,42.3478375 70.9855647,42.5003787 70.8232617,42.6346072 C70.6609587,42.7688357 70.4849742,42.877043 70.2953028,42.9592324 C70.1056314,43.0414217 69.9034512,43.0928508 69.6887561,43.113521 C69.4740611,43.1341912 69.2478262,43.1167968 69.0100446,43.0613371 L69.2925902,41.9190031 C69.5050581,41.9547884 69.6980883,41.9539102 69.8716865,41.9163684 C70.0452848,41.8788267 70.1990635,41.8095578 70.3330274,41.7085597 C70.4669912,41.6075616 70.580949,41.4789826 70.6749044,41.322819 C70.7688598,41.1666554 70.8412383,40.9858763 70.892042,40.7804763 C70.9342482,40.6098364 70.9531785,40.4451785 70.9488335,40.2864978 C70.9444885,40.1278171 70.9157044,39.9832136 70.8624803,39.8526829 C70.8092562,39.7221522 70.7312113,39.6106337 70.6283432,39.5181238 C70.5254752,39.425614 70.3982031,39.3606018 70.2465231,39.3230852 Z M70.2221562,31.5170504 C70.0528981,31.5149065 69.9035426,31.5480106 69.7740851,31.6163638 C69.6446276,31.6847169 69.5302618,31.7825591 69.4309844,31.9098933 C69.3317069,32.0372275 69.2443277,32.1891262 69.168844,32.3655941 C69.0933603,32.5420619 69.023378,32.7340601 68.958895,32.9415944 C68.8739752,33.2204905 68.7695788,33.4950665 68.6457025,33.7653304 C68.5218262,34.0355944 68.3714697,34.27622 68.1946287,34.4872143 C68.0177876,34.6982086 67.8121703,34.8681423 67.5777706,34.9970205 C67.343371,35.1258986 67.0731919,35.1883989 66.7672253,35.1845234 C66.4612587,35.1806478 66.1878671,35.1112623 65.9470421,34.9763647 C65.7062171,34.8414671 65.5025804,34.6622802 65.3361259,34.4387988 C65.1696714,34.2153173 65.0427318,33.9565299 64.9553035,33.6624288 C64.8678752,33.3683277 64.8261819,33.0617885 64.8302223,32.7428021 C64.8345514,32.4010309 64.8914945,32.0819055 65.0010533,31.7854163 C65.1106121,31.4889271 65.262009,31.2304098 65.4552486,31.0098567 C65.6484881,30.7893036 65.8785688,30.6156105 66.1454975,30.4887722 C66.4124262,30.3619338 66.7070275,30.298929 67.0293101,30.2997557 L67.0144676,31.4715367 C66.8352385,31.4855439 66.6711946,31.5217174 66.522331,31.5800583 C66.3734674,31.6383992 66.24464,31.7214088 66.1358451,31.8290895 C66.0270501,31.9367702 65.9423697,32.0683566 65.8818013,32.2238527 C65.821233,32.3793489 65.7896506,32.5596256 65.7870531,32.7646883 C65.7848267,32.9404563 65.8055497,33.1034906 65.8492227,33.2537962 C65.8928956,33.4041017 65.9579825,33.5343297 66.0444853,33.6444842 C66.1309882,33.7546387 66.2356906,33.8414201 66.3585959,33.9048311 C66.4815012,33.9682422 66.6210708,34.0009367 66.7773091,34.0029157 C66.9433122,34.0050184 67.0878781,33.9645289 67.2110112,33.8814459 C67.3341443,33.798363 67.4421446,33.6890461 67.5350152,33.553492 C67.6278858,33.417938 67.7088067,33.2618882 67.7777805,33.0853379 C67.8467542,32.9087875 67.9101236,32.7248442 67.9678905,32.5335022 C68.0595264,32.2384137 68.1713392,31.956607 68.3033323,31.6880736 C68.4353254,31.4195402 68.5929435,31.1838898 68.7761915,30.9811153 C68.9594394,30.7783408 69.1706291,30.618244 69.4097669,30.5008201 C69.6489047,30.3833962 69.9214528,30.3266229 70.2274194,30.3304985 C70.5431509,30.3344977 70.8206009,30.4047485 71.0597778,30.541253 C71.2989547,30.6777574 71.4984918,30.8593339 71.6583952,31.0859879 C71.8182985,31.3126418 71.9378733,31.5745914 72.017123,31.8718444 C72.0963727,32.1690974 72.1339561,32.47884 72.1298744,32.8010814 C72.127112,33.0191639 72.1032134,33.2353478 72.0581777,33.4496394 C72.0131421,33.663931 71.9470635,33.8690004 71.8599401,34.0648537 C71.7728167,34.260707 71.6655265,34.4424664 71.5380665,34.6101371 C71.4106065,34.7778079 71.2638972,34.9232581 71.0979342,35.0464921 C70.9319712,35.1697262 70.7468214,35.2658579 70.5424791,35.3348903 C70.3381369,35.4039226 70.1138873,35.4385197 69.8697239,35.4386825 L69.8846282,34.262019 C70.0996619,34.2484653 70.2874173,34.2036397 70.4479,34.1275408 C70.6083828,34.051442 70.7423398,33.9489648 70.8497753,33.8201062 C70.9572108,33.6912476 71.0388837,33.5400904 71.0947963,33.3666302 C71.150709,33.1931699 71.1800048,33.0006563 71.1826847,32.7890837 C71.1849111,32.6133157 71.1658362,32.4486745 71.1254595,32.2951552 C71.0850827,32.141636 71.024116,32.0073908 70.9425575,31.8924157 C70.8609989,31.7774407 70.7596029,31.6866318 70.6383664,31.6199865 C70.5171298,31.5533411 70.3783945,31.5190294 70.2221562,31.5170504 Z M63.4628229,18.6464134 L62.6550736,16.9651519 L63.6453455,16.4893833 L64.4530948,18.1706449 L66.3412131,17.2635128 L66.8338979,18.2889943 L64.9457795,19.1961264 L65.7556434,20.8817891 L64.7653715,21.3575577 L63.9555077,19.671895 L62.1686172,20.5303929 L61.6759324,19.5049114 L63.4628229,18.6464134 Z M52.6559524,5.83590088 C52.8921836,5.58674086 53.1483184,5.39138496 53.4243644,5.24982733 C53.7004103,5.10826969 53.9847132,5.02483612 54.2772814,4.99952411 C54.5698496,4.9742121 54.8644611,5.00836129 55.1611248,5.10197272 C55.4577884,5.19558414 55.747134,5.35269738 56.0291702,5.57331715 C56.3701776,5.84006651 56.6159488,6.13873771 56.7664912,6.46933972 C56.9170336,6.79994172 56.9886667,7.14423797 56.9813926,7.50223879 C56.9741185,7.8602396 56.8944557,8.22360148 56.7424017,8.59233533 C56.5903477,8.96106917 56.3812283,9.31821924 56.1150373,9.66379623 L55.5163585,10.4291361 C55.2470452,10.7681378 54.9499717,11.0554536 54.6251292,11.2910919 C54.3002868,11.5267302 53.9638694,11.6913151 53.6158671,11.7848513 C53.2678647,11.8783876 52.9153075,11.8918987 52.5581847,11.8253852 C52.201062,11.7588716 51.8545661,11.5942482 51.5186866,11.3315101 C51.2238306,11.1008622 50.9951234,10.851701 50.8325581,10.5840191 C50.6699927,10.3163372 50.5688394,10.0388372 50.5290949,9.75151074 C50.4893504,9.46418429 50.5100133,9.16832199 50.5910841,8.86391497 C50.6721548,8.55950795 50.8078934,8.25654188 50.9983039,7.95500768 L51.9213269,8.6770324 C51.8083501,8.85315999 51.7229317,9.02707739 51.6650693,9.1987898 C51.6072068,9.37050222 51.5816938,9.53652044 51.5885294,9.69684943 C51.595365,9.85717843 51.640902,10.0116169 51.7251416,10.1601695 C51.8093812,10.308722 51.93611,10.4491821 52.1053317,10.581554 C52.3130129,10.7440104 52.5244636,10.8329588 52.7396902,10.848402 C52.9549168,10.8638451 53.1687903,10.8255392 53.3813173,10.7334829 C53.5938442,10.6414266 53.8009244,10.5048188 54.0025639,10.3236553 C54.2042034,10.1424919 54.3952738,9.93653479 54.5757809,9.7057779 L55.1804766,8.9327462 C55.3690062,8.69173346 55.5274123,8.45092627 55.6556996,8.21031743 C55.783987,7.96970859 55.8679986,7.73683177 55.9077371,7.51167999 C55.9474755,7.2865282 55.9329374,7.0726492 55.8641221,6.87003656 C55.7953068,6.66742393 55.6557787,6.48388936 55.4455336,6.31942735 C55.1224739,6.06671743 54.8046366,5.96583982 54.492012,6.01679148 C54.1793875,6.06774315 53.8763269,6.24912219 53.5828212,6.56093404 L52.6559524,5.83590088 Z M45.069418,3.74820551 C45.2459126,3.36717296 45.4639577,3.02422757 45.7235599,2.71935907 C45.9831621,2.41449057 46.2716038,2.1732109 46.5888936,1.99551283 C46.9061835,1.81781476 47.2468937,1.71733728 47.6110346,1.69407739 C47.9751754,1.6708175 48.352187,1.74948593 48.7420808,1.93008503 C49.1290208,2.10931596 49.4288021,2.34503538 49.6414335,2.63725036 C49.8540649,2.92946533 49.9937267,3.25334838 50.0604231,3.6089092 C50.1271196,3.96447003 50.1277437,4.33874838 50.0622957,4.73175547 C49.9968476,5.12476257 49.8758781,5.51177659 49.6993835,5.89280914 L49.3176646,6.71689869 C49.2000015,6.97092039 49.0636622,7.20911177 48.9086426,7.43147998 C48.753623,7.65384818 48.5844286,7.85260591 48.4010543,8.02775912 C48.21768,8.20291234 48.0211575,8.35224051 47.8114807,8.47574813 C47.601804,8.59925575 47.381949,8.68665551 47.1519092,8.73795004 C46.9218694,8.78924456 46.6826778,8.80221705 46.4343272,8.77686788 C46.1859766,8.75151871 45.9333174,8.67932959 45.676342,8.56029836 C45.2864482,8.37969926 44.9829749,8.14226965 44.7659128,7.84800241 C44.5488508,7.55373517 44.4047585,7.22779989 44.3336314,6.87018681 C44.2625044,6.51257372 44.2596106,6.13545037 44.32495,5.73880544 C44.3902894,5.34216052 44.5112045,4.95332761 44.6876991,4.57229506 L45.069418,3.74820551 Z M45.7513665,5.07574903 C45.6421299,5.31932395 45.552778,5.57031137 45.4833082,5.82871882 C45.4138384,6.08712627 45.3844011,6.33268247 45.3949955,6.56539478 C45.4055898,6.79810709 45.4643541,7.01007922 45.57129,7.20131752 C45.678226,7.39255581 45.8527947,7.54426786 46.0950014,7.65645822 C46.3342544,7.76728039 46.5599116,7.80095328 46.7719796,7.75747788 C46.9840477,7.71400249 47.1803818,7.61929527 47.3609878,7.47335337 C47.5415938,7.32741148 47.7054243,7.14410631 47.8524842,6.92343237 C47.999544,6.70275843 48.130644,6.47200563 48.2457881,6.23116707 L48.6316115,5.39821634 C48.7408482,5.15464143 48.8313348,4.90507651 48.9030743,4.64951411 C48.9748138,4.3939517 49.0082852,4.14936727 49.0034897,3.91575348 C48.9986941,3.68213969 48.9446481,3.46966249 48.84135,3.27831549 C48.7380518,3.0869685 48.5667788,2.93588618 48.3275258,2.825064 C48.0853191,2.71287365 47.8563662,2.67857103 47.6406604,2.72215512 C47.4249545,2.76573922 47.2245862,2.85947467 47.0395496,3.0033643 C46.8545129,3.14725393 46.6866483,3.32958733 46.5359506,3.55036997 C46.3852529,3.77115261 46.2523341,4.00195975 46.13719,4.24279831 L45.7513665,5.07574903 Z M38.1634377,2.68767844 L41.0862694,3.28577637 L41.6931773,0.319891515 L42.8508291,0.556781367 L41.4255744,7.5218271 L36.9145592,6.59873979 L37.1083782,5.6515701 L40.4617416,6.33776757 L40.8934293,4.22816237 L37.9705976,3.63006444 L38.1634377,2.68767844 Z M30.6245665,3.17348571 L33.6068845,3.09320454 L33.5254208,0.0669570562 L34.7066336,0.0351599332 L34.8979419,7.14196048 L30.2951171,7.26586415 L30.2691012,6.29941737 L33.6907133,6.20731083 L33.632769,4.05477028 L30.6504509,4.13505144 L30.6245665,3.17348571 Z M23.5450239,5.48442413 L26.3741406,4.74241261 L25.8080317,2.58397131 L22.4971622,3.45233538 L22.2543671,2.52661438 L26.7034956,1.35971146 L28.5071162,8.23649598 L24.0910492,9.39472766 L23.8457766,8.45956053 L27.1235846,7.59986772 L26.6144582,5.65868747 L23.7853415,6.40069899 L23.5450239,5.48442413 Z M17.0385259,9.24394863 L19.6211876,7.87123553 L18.5738923,5.90082422 L15.5514452,7.50728813 L15.1022769,6.66221019 L19.163825,4.5034527 L22.5005032,10.7811745 L18.4691365,12.9238903 L18.015385,12.0701891 L21.0076507,10.4797669 L20.0657724,8.70769022 L17.4831108,10.0804033 L17.0385259,9.24394863 Z M11.0337542,13.0389136 C11.1451076,13.1664022 11.2694311,13.2555461 11.4067284,13.306348 C11.5440258,13.3571499 11.6932145,13.3770333 11.8542991,13.3659986 C12.0153837,13.354964 12.1868232,13.3186754 12.3686227,13.2571318 C12.5504223,13.1955882 12.7401171,13.1195836 12.9377129,13.0291157 C13.2020946,12.9062469 13.476256,12.8007667 13.7602054,12.7126719 C14.0441548,12.6245771 14.3237013,12.5759823 14.5988533,12.566886 C14.8740054,12.5577897 15.1377798,12.5975257 15.3901847,12.6860953 C15.6425895,12.7746649 15.8694348,12.9341774 16.0707275,13.1646374 C16.2720201,13.3950975 16.402785,13.6450133 16.4630262,13.9143923 C16.5232673,14.1837713 16.5257066,14.455009 16.4703442,14.7281135 C16.4149818,15.0012179 16.3069553,15.2684535 16.1462616,15.5298282 C15.9855678,15.7912028 15.7850905,16.0268157 15.5448236,16.236674 C15.2873948,16.4615222 15.0117212,16.632073 14.7177946,16.7483318 C14.4238679,16.8645906 14.1303019,16.92435 13.8370877,16.9276121 C13.5438735,16.9308741 13.2609741,16.8754273 12.988381,16.7612699 C12.7157879,16.6471126 12.4722694,16.469748 12.257818,16.2291708 L13.1404266,15.4582668 C13.2704627,15.5824034 13.406874,15.6804384 13.5496647,15.7523748 C13.6924554,15.8243111 13.8402479,15.8648632 13.9930465,15.8740321 C14.1458451,15.883201 14.3003556,15.8584573 14.4565828,15.7998003 C14.6128099,15.7411432 14.7681498,15.6443617 14.922607,15.5094528 C15.054999,15.3938166 15.1625926,15.269586 15.2453912,15.1367573 C15.3281898,15.0039285 15.3817453,14.8685496 15.4060592,14.7306163 C15.4303732,14.5926831 15.4251346,14.4567927 15.3903433,14.3229412 C15.3555521,14.1890897 15.2867636,14.063325 15.1839759,13.9456432 C15.0747639,13.8206064 14.9481363,13.7399581 14.8040891,13.7036959 C14.6600419,13.6674338 14.5065551,13.6599486 14.3436241,13.6812401 C14.1806931,13.7025317 14.0104717,13.7464003 13.832955,13.8128473 C13.6554383,13.8792943 13.4761554,13.9548488 13.2951009,14.0395131 C13.0141779,14.1681855 12.7296821,14.2729676 12.441605,14.3538624 C12.153528,14.4347573 11.8728409,14.4746238 11.5995353,14.4734632 C11.3262297,14.4723025 11.0660628,14.4218519 10.8190268,14.3221098 C10.5719908,14.2223677 10.3478299,14.0572691 10.1465372,13.8268091 C9.93882038,13.5889939 9.80599165,13.3354782 9.74804706,13.0662543 C9.69010247,12.7970305 9.69217862,12.5272513 9.75427558,12.2569088 C9.81637253,11.9865663 9.93166876,11.7227057 10.1001677,11.4653188 C10.2686667,11.207932 10.4742724,10.9732423 10.716991,10.7612426 C10.8812551,10.6177681 11.0582098,10.4913022 11.2478606,10.3818413 C11.4375113,10.2723803 11.6343361,10.1847456 11.8383408,10.1189345 C12.0423455,10.0531234 12.2493111,10.0117371 12.459244,9.99477426 C12.6691769,9.97781146 12.8754061,9.99001321 13.0779379,10.0313799 C13.2804697,10.0727466 13.4756205,10.146489 13.6633962,10.2526094 C13.8511718,10.3587298 14.0265858,10.5026559 14.1896433,10.6843922 L13.3033571,11.4585084 C13.1497655,11.3074031 12.9910871,11.1974823 12.8273171,11.1287427 C12.6635471,11.0600031 12.4978326,11.0286218 12.3301686,11.0345979 C12.1625046,11.040574 11.9954255,11.0806177 11.8289261,11.15473 C11.6624267,11.2288424 11.4994991,11.3354929 11.3401384,11.4746846 C11.2077465,11.5903208 11.0978563,11.7143962 11.0104646,11.8469147 C10.9230729,11.9794331 10.8637762,12.1144242 10.8325725,12.251892 C10.8013689,12.3893598 10.8014015,12.5254752 10.8326704,12.6602423 C10.8639392,12.7950094 10.9309665,12.9212319 11.0337542,13.0389136 Z M6.21465702,20.5366427 C5.95632599,20.3104768 5.75096757,20.0622897 5.59857558,19.7920738 C5.4461836,19.5218579 5.35154257,19.2410869 5.31464966,18.9497525 C5.27775675,18.658418 5.30019726,18.3626841 5.38197187,18.0625419 C5.46374648,17.7623997 5.60926313,17.4670519 5.8185262,17.1764896 C6.07154427,16.8251733 6.36023536,16.5677526 6.68460812,16.4042196 C7.00898088,16.2406867 7.35016599,16.1554581 7.70817369,16.1485311 C8.06618139,16.1416042 8.43241627,16.2067965 8.80688932,16.34411 C9.18136237,16.4814235 9.54652348,16.6762168 9.90238361,16.9284958 L10.6908602,17.4963568 C11.040274,17.7520164 11.3391433,18.0374637 11.5874768,18.3527072 C11.8358104,18.6679508 12.0136053,18.9975775 12.1208668,19.3415973 C12.2281284,19.6856171 12.2556084,20.0373613 12.2033076,20.3968406 C12.1510068,20.7563199 12.0002521,21.1090708 11.7510388,21.4551042 C11.5322637,21.7588739 11.2923671,21.9972809 11.0313417,22.1703324 C10.7703163,22.3433839 10.4970454,22.455461 10.2115209,22.5065672 C9.92599632,22.5576734 9.62954739,22.5487582 9.32216518,22.4798214 C9.01478296,22.4108847 8.7066729,22.2872659 8.39782575,22.1089615 L9.08268328,21.158035 C9.26315207,21.2639392 9.44031966,21.3423942 9.61419138,21.3934025 C9.7880631,21.4444107 9.95496238,21.4633208 10.1148943,21.4501333 C10.2748261,21.4369457 10.4273375,21.3853209 10.572433,21.2952571 C10.7175285,21.2051934 10.8528532,21.0729948 10.978411,20.8986574 C11.1325047,20.6846979 11.2129988,20.4698865 11.2198958,20.2542169 C11.2267927,20.0385472 11.1800364,19.8263608 11.0796255,19.6176511 C10.9792146,19.4089415 10.8345031,19.2074409 10.6454868,19.0131434 C10.4564705,18.8188459 10.2430991,18.6360923 10.0053663,18.464877 L9.20896537,17.8913089 C8.96066665,17.7124841 8.71376779,17.5637509 8.46826137,17.445105 C8.22275495,17.3264591 7.98673008,17.2517475 7.76017966,17.2209679 C7.53362925,17.1901884 7.32049491,17.2131958 7.12077025,17.2899908 C6.9210456,17.3667859 6.74318788,17.5134817 6.58719178,17.7300827 C6.34749044,18.0629087 6.25929493,18.384496 6.3226026,18.6948544 C6.38591027,19.0052128 6.57916351,19.300843 6.90236813,19.581754 L6.21465702,20.5366427 Z M5.06565504,25.8418533 L5.5221924,24.7413886 L2.96045497,23.6786295 L3.40950811,22.5962053 L9.97621533,25.320461 L9.11553015,27.3951075 C8.97281728,27.730616 8.8011821,28.0232834 8.60061946,28.2731183 C8.40005682,28.5229533 8.17481049,28.7176097 7.92487372,28.8570934 C7.67493694,28.996577 7.40299578,29.0723036 7.10904206,29.0842752 C6.81508834,29.0962468 6.50274497,29.0336279 6.17200256,28.8964165 C5.94950313,28.8041107 5.75946402,28.6909106 5.60187953,28.5568127 C5.44429504,28.4227148 5.31366849,28.2724893 5.20999594,28.1061317 C5.1063234,27.939774 5.02942414,27.7598561 4.97929585,27.5663725 C4.92916756,27.3728889 4.90181368,27.1712351 4.89723339,26.9614051 L1.56076665,27.2054308 L1.50664543,27.1829781 L1.98563545,26.0283922 L5.06565504,25.8418533 Z M6.39715202,25.1043733 L5.98364892,26.1011056 C5.90880635,26.2815105 5.86575868,26.4574818 5.85450462,26.6290247 C5.84325055,26.8005675 5.86221491,26.9608559 5.91139828,27.1098946 C5.96058165,27.2589332 6.04110191,27.3918959 6.15296148,27.5087865 C6.26482104,27.6256771 6.40944775,27.7209185 6.58684595,27.7945137 C6.77025764,27.8706037 6.94446956,27.9093973 7.10948691,27.9108957 C7.27450426,27.9123942 7.42725956,27.8797321 7.56775738,27.8129085 C7.7082552,27.746085 7.83511598,27.6462934 7.94834352,27.5135309 C8.06157106,27.3807684 8.15897909,27.2203007 8.24057053,27.0321229 L8.65220257,26.0399006 L6.39715202,25.1043733 Z M8.33959084,31.7540452 L7.65822226,35.9273031 L6.69924037,35.7707299 L6.94708229,34.2527435 L1.84375656,33.4195226 L1.59591464,34.937509 L0.641751754,34.7817227 L1.32312033,30.6084648 L2.27728321,30.7642511 L2.03494889,32.2485045 L7.13827463,33.0817254 L7.38060895,31.5974721 L8.33959084,31.7540452 Z M3.92994607,39.6948693 L1.21135161,39.8758123 L1.13352666,38.7065244 L8.22720684,38.2343864 L8.38512664,40.6070665 C8.40544238,40.9613189 8.37444251,41.2920667 8.29212609,41.59932 C8.20980967,41.9065732 8.08089036,42.1753284 7.90536428,42.4055936 C7.7298382,42.6358588 7.51052625,42.8209149 7.24742186,42.9607675 C6.98431747,43.1006201 6.68224779,43.1818947 6.34120377,43.2045937 C6.00990386,43.2266442 5.70703548,43.1856328 5.43258953,43.0815583 C5.15814358,42.9774837 4.919489,42.8229088 4.71661862,42.6178287 C4.51374824,42.4127487 4.35197248,42.1633414 4.23128651,41.8695995 C4.11060053,41.5758576 4.03685274,41.2520815 4.01004092,40.8982615 L3.92994607,39.6948693 Z M4.87512049,39.6319608 L4.95521534,40.835353 C4.96840241,41.0334834 5.01022803,41.2084991 5.08069345,41.3604056 C5.15115887,41.5123121 5.24365791,41.6399131 5.35819334,41.7432124 C5.47272878,41.8465117 5.606645,41.9224204 5.75994603,41.9709407 C5.91324706,42.0194611 6.07759214,42.0378841 6.25298621,42.0262103 C6.43812439,42.0138879 6.60669824,41.9733067 6.75871282,41.9044653 C6.91072739,41.8356239 7.03908632,41.7422588 7.14379347,41.6243672 C7.24850062,41.5064756 7.32652104,41.3675253 7.37785705,41.207512 C7.42919307,41.0474987 7.44989125,40.8683215 7.43995222,40.669975 L7.35985737,39.4665828 L4.87512049,39.6319608 Z M10.1071915,49.6127345 L9.46865612,47.5256096 L3.59482365,49.3226511 L3.25341433,48.2067163 L9.12724681,46.4096748 L8.49299687,44.3365574 L9.41749514,44.0537162 L11.0316898,49.3298933 L10.1071915,49.6127345 Z" id="EXPRESS-+-COFFEESCRI" fill="#9B9B9B"></path>
                </g>
                <path d="M5,46 C2.23857625,46 0,43.7614237 0,41 C0,38.2385763 2.23857625,36 5,36 C7.76142375,36 10,38.2385763 10,41 C10,43.7614237 7.76142375,46 5,46 Z M5,86 C2.23857625,86 0,83.7614237 0,81 C0,78.2385763 2.23857625,76 5,76 C7.76142375,76 10,78.2385763 10,81 C10,83.7614237 7.76142375,86 5,86 Z M5,126 C2.23857625,126 0,123.761424 0,121 C0,118.238576 2.23857625,116 5,116 C7.76142375,116 10,118.238576 10,121 C10,123.761424 7.76142375,126 5,126 Z M5,166 C2.23857625,166 0,163.761424 0,161 C0,158.238576 2.23857625,156 5,156 C7.76142375,156 10,158.238576 10,161 C10,163.761424 7.76142375,166 5,166 Z M55,46 C52.2385763,46 50,43.7614237 50,41 C50,38.2385763 52.2385763,36 55,36 C57.7614237,36 60,38.2385763 60,41 C60,43.7614237 57.7614237,46 55,46 Z M55,86 C52.2385763,86 50,83.7614237 50,81 C50,78.2385763 52.2385763,76 55,76 C57.7614237,76 60,78.2385763 60,81 C60,83.7614237 57.7614237,86 55,86 Z M55,126 C52.2385763,126 50,123.761424 50,121 C50,118.238576 52.2385763,116 55,116 C57.7614237,116 60,118.238576 60,121 C60,123.761424 57.7614237,126 55,126 Z M55,166 C52.2385763,166 50,163.761424 50,161 C50,158.238576 52.2385763,156 55,156 C57.7614237,156 60,158.238576 60,161 C60,163.761424 57.7614237,166 55,166 Z M105,46 C102.238576,46 100,43.7614237 100,41 C100,38.2385763 102.238576,36 105,36 C107.761424,36 110,38.2385763 110,41 C110,43.7614237 107.761424,46 105,46 Z M105,86 C102.238576,86 100,83.7614237 100,81 C100,78.2385763 102.238576,76 105,76 C107.761424,76 110,78.2385763 110,81 C110,83.7614237 107.761424,86 105,86 Z M105,126 C102.238576,126 100,123.761424 100,121 C100,118.238576 102.238576,116 105,116 C107.761424,116 110,118.238576 110,121 C110,123.761424 107.761424,126 105,126 Z M105,166 C102.238576,166 100,163.761424 100,161 C100,158.238576 102.238576,156 105,156 C107.761424,156 110,158.238576 110,161 C110,163.761424 107.761424,166 105,166 Z M155,46 C152.238576,46 150,43.7614237 150,41 C150,38.2385763 152.238576,36 155,36 C157.761424,36 160,38.2385763 160,41 C160,43.7614237 157.761424,46 155,46 Z M155,86 C152.238576,86 150,83.7614237 150,81 C150,78.2385763 152.238576,76 155,76 C157.761424,76 160,78.2385763 160,81 C160,83.7614237 157.761424,86 155,86 Z M155,126 C152.238576,126 150,123.761424 150,121 C150,118.238576 152.238576,116 155,116 C157.761424,116 160,118.238576 160,121 C160,123.761424 157.761424,126 155,126 Z M155,166 C152.238576,166 150,163.761424 150,161 C150,158.238576 152.238576,156 155,156 C157.761424,156 160,158.238576 160,161 C160,163.761424 157.761424,166 155,166 Z M205,46 C202.238576,46 200,43.7614237 200,41 C200,38.2385763 202.238576,36 205,36 C207.761424,36 210,38.2385763 210,41 C210,43.7614237 207.761424,46 205,46 Z M205,86 C202.238576,86 200,83.7614237 200,81 C200,78.2385763 202.238576,76 205,76 C207.761424,76 210,78.2385763 210,81 C210,83.7614237 207.761424,86 205,86 Z M205,126 C202.238576,126 200,123.761424 200,121 C200,118.238576 202.238576,116 205,116 C207.761424,116 210,118.238576 210,121 C210,123.761424 207.761424,126 205,126 Z M205,166 C202.238576,166 200,163.761424 200,161 C200,158.238576 202.238576,156 205,156 C207.761424,156 210,158.238576 210,161 C210,163.761424 207.761424,166 205,166 Z M255,46 C252.238576,46 250,43.7614237 250,41 C250,38.2385763 252.238576,36 255,36 C257.761424,36 260,38.2385763 260,41 C260,43.7614237 257.761424,46 255,46 Z M255,86 C252.238576,86 250,83.7614237 250,81 C250,78.2385763 252.238576,76 255,76 C257.761424,76 260,78.2385763 260,81 C260,83.7614237 257.761424,86 255,86 Z M255,126 C252.238576,126 250,123.761424 250,121 C250,118.238576 252.238576,116 255,116 C257.761424,116 260,118.238576 260,121 C260,123.761424 257.761424,126 255,126 Z M255,166 C252.238576,166 250,163.761424 250,161 C250,158.238576 252.238576,156 255,156 C257.761424,156 260,158.238576 260,161 C260,163.761424 257.761424,166 255,166 Z M305,46 C302.238576,46 300,43.7614237 300,41 C300,38.2385763 302.238576,36 305,36 C307.761424,36 310,38.2385763 310,41 C310,43.7614237 307.761424,46 305,46 Z M305,86 C302.238576,86 300,83.7614237 300,81 C300,78.2385763 302.238576,76 305,76 C307.761424,76 310,78.2385763 310,81 C310,83.7614237 307.761424,86 305,86 Z M305,126 C302.238576,126 300,123.761424 300,121 C300,118.238576 302.238576,116 305,116 C307.761424,116 310,118.238576 310,121 C310,123.761424 307.761424,126 305,126 Z M305,166 C302.238576,166 300,163.761424 300,161 C300,158.238576 302.238576,156 305,156 C307.761424,156 310,158.238576 310,161 C310,163.761424 307.761424,166 305,166 Z M355,46 C352.238576,46 350,43.7614237 350,41 C350,38.2385763 352.238576,36 355,36 C357.761424,36 360,38.2385763 360,41 C360,43.7614237 357.761424,46 355,46 Z M355,86 C352.238576,86 350,83.7614237 350,81 C350,78.2385763 352.238576,76 355,76 C357.761424,76 360,78.2385763 360,81 C360,83.7614237 357.761424,86 355,86 Z M355,126 C352.238576,126 350,123.761424 350,121 C350,118.238576 352.238576,116 355,116 C357.761424,116 360,118.238576 360,121 C360,123.761424 357.761424,126 355,126 Z M355,166 C352.238576,166 350,163.761424 350,161 C350,158.238576 352.238576,156 355,156 C357.761424,156 360,158.238576 360,161 C360,163.761424 357.761424,166 355,166 Z M405,46 C402.238576,46 400,43.7614237 400,41 C400,38.2385763 402.238576,36 405,36 C407.761424,36 410,38.2385763 410,41 C410,43.7614237 407.761424,46 405,46 Z M405,86 C402.238576,86 400,83.7614237 400,81 C400,78.2385763 402.238576,76 405,76 C407.761424,76 410,78.2385763 410,81 C410,83.7614237 407.761424,86 405,86 Z M405,126 C402.238576,126 400,123.761424 400,121 C400,118.238576 402.238576,116 405,116 C407.761424,116 410,118.238576 410,121 C410,123.761424 407.761424,126 405,126 Z M405,166 C402.238576,166 400,163.761424 400,161 C400,158.238576 402.238576,156 405,156 C407.761424,156 410,158.238576 410,161 C410,163.761424 407.761424,166 405,166 Z M455,46 C452.238576,46 450,43.7614237 450,41 C450,38.2385763 452.238576,36 455,36 C457.761424,36 460,38.2385763 460,41 C460,43.7614237 457.761424,46 455,46 Z M455,86 C452.238576,86 450,83.7614237 450,81 C450,78.2385763 452.238576,76 455,76 C457.761424,76 460,78.2385763 460,81 C460,83.7614237 457.761424,86 455,86 Z M455,126 C452.238576,126 450,123.761424 450,121 C450,118.238576 452.238576,116 455,116 C457.761424,116 460,118.238576 460,121 C460,123.761424 457.761424,126 455,126 Z M455,166 C452.238576,166 450,163.761424 450,161 C450,158.238576 452.238576,156 455,156 C457.761424,156 460,158.238576 460,161 C460,163.761424 457.761424,166 455,166 Z M505,46 C502.238576,46 500,43.7614237 500,41 C500,38.2385763 502.238576,36 505,36 C507.761424,36 510,38.2385763 510,41 C510,43.7614237 507.761424,46 505,46 Z M505,86 C502.238576,86 500,83.7614237 500,81 C500,78.2385763 502.238576,76 505,76 C507.761424,76 510,78.2385763 510,81 C510,83.7614237 507.761424,86 505,86 Z M505,126 C502.238576,126 500,123.761424 500,121 C500,118.238576 502.238576,116 505,116 C507.761424,116 510,118.238576 510,121 C510,123.761424 507.761424,126 505,126 Z M505,166 C502.238576,166 500,163.761424 500,161 C500,158.238576 502.238576,156 505,156 C507.761424,156 510,158.238576 510,161 C510,163.761424 507.761424,166 505,166 Z M555,46 C552.238576,46 550,43.7614237 550,41 C550,38.2385763 552.238576,36 555,36 C557.761424,36 560,38.2385763 560,41 C560,43.7614237 557.761424,46 555,46 Z M555,86 C552.238576,86 550,83.7614237 550,81 C550,78.2385763 552.238576,76 555,76 C557.761424,76 560,78.2385763 560,81 C560,83.7614237 557.761424,86 555,86 Z M555,126 C552.238576,126 550,123.761424 550,121 C550,118.238576 552.238576,116 555,116 C557.761424,116 560,118.238576 560,121 C560,123.761424 557.761424,126 555,126 Z M555,166 C552.238576,166 550,163.761424 550,161 C550,158.238576 552.238576,156 555,156 C557.761424,156 560,158.238576 560,161 C560,163.761424 557.761424,166 555,166 Z" id="Combined-Shape" fill="url(#linearGradient-2)"></path>
                <path d="M331.741999,8.906 L327.087999,8.906 C327.100999,10.245 327.776999,11.207 328.894999,11.207 C329.934999,11.207 330.272999,10.661 330.480999,10.18 L331.637999,10.18 C331.377999,11.025 330.662999,12.156 328.855999,12.156 C326.788999,12.156 325.943999,10.466 325.943999,8.776 C325.943999,6.813 326.931999,5.253 328.933999,5.253 C331.065999,5.253 331.754999,6.956 331.754999,8.36 C331.754999,8.568 331.754999,8.737 331.741999,8.906 Z M327.126999,8.113 L330.597999,8.113 C330.584999,7.021 330.038999,6.15 328.920999,6.15 C327.750999,6.15 327.243999,6.956 327.126999,8.113 Z M332.725999,5.409 L334.870999,8.711 L332.660999,12 L333.934999,12 C334.792999,10.648 335.325999,9.764 335.546999,9.4 L335.559999,9.4 C335.819999,9.829 336.378999,10.713 337.184999,12 L338.497999,12 L336.248999,8.581 L338.471999,5.409 L337.197999,5.409 C336.417999,6.592 335.871999,7.45 335.585999,7.866 L335.572999,7.866 C335.338999,7.502 334.948999,6.878 334.012999,5.409 L332.725999,5.409 Z M340.989999,14.587 L339.858999,14.587 L339.858999,7.021 C339.858999,6.475 339.858999,5.916 339.845999,5.409 L340.950999,5.409 C340.976999,5.63 340.989999,6.02 340.989999,6.449 C341.353999,5.773 342.016999,5.253 343.147999,5.253 C344.668999,5.253 345.773999,6.527 345.773999,8.529 C345.773999,10.895 344.512999,12.156 342.913999,12.156 C341.847999,12.156 341.288999,11.714 340.989999,11.181 L340.989999,14.587 Z M344.603999,8.581 C344.603999,7.177 343.966999,6.228 342.848999,6.228 C341.483999,6.228 340.937999,7.086 340.937999,8.698 C340.937999,10.245 341.379999,11.194 342.757999,11.194 C343.966999,11.194 344.603999,10.206 344.603999,8.581 Z M347.628999,12 L348.772999,12 L348.772999,8.802 C348.772999,7.138 349.630999,6.423 350.982999,6.384 L350.982999,5.253 C349.890999,5.279 349.110999,5.864 348.772999,6.748 C348.772999,6.111 348.746999,5.591 348.733999,5.409 L347.615999,5.409 C347.615999,5.76 347.628999,6.28 347.628999,7.203 L347.628999,12 Z M357.791,8.906 L353.137,8.906 C353.15,10.245 353.826,11.207 354.944,11.207 C355.984,11.207 356.322,10.661 356.53,10.18 L357.687,10.18 C357.427,11.025 356.712,12.156 354.905,12.156 C352.838,12.156 351.993,10.466 351.993,8.776 C351.993,6.813 352.981,5.253 354.983,5.253 C357.115,5.253 357.804,6.956 357.804,8.36 C357.804,8.568 357.804,8.737 357.791,8.906 Z M353.176,8.113 L356.647,8.113 C356.634,7.021 356.088,6.15 354.97,6.15 C353.8,6.15 353.293,6.956 353.176,8.113 Z M359.139,10.115 C359.308,11.298 360.153,12.156 361.856,12.156 C363.494,12.156 364.417,11.311 364.417,10.154 C364.417,9.179 364.014,8.516 362.012,8.035 C360.803,7.749 360.53,7.502 360.53,7.008 C360.53,6.579 360.816,6.137 361.739,6.137 C362.74,6.137 363.065,6.735 363.169,7.151 L364.261,7.151 C364.183,6.241 363.481,5.253 361.778,5.253 C360.088,5.253 359.399,6.176 359.399,7.099 C359.399,7.996 359.789,8.581 361.674,9.036 C362.935,9.335 363.234,9.621 363.234,10.245 C363.234,10.843 362.857,11.259 361.895,11.259 C360.998,11.259 360.465,10.83 360.283,10.115 L359.139,10.115 Z M365.739,10.115 C365.908,11.298 366.753,12.156 368.456,12.156 C370.094,12.156 371.017,11.311 371.017,10.154 C371.017,9.179 370.614,8.516 368.612,8.035 C367.403,7.749 367.13,7.502 367.13,7.008 C367.13,6.579 367.416,6.137 368.339,6.137 C369.34,6.137 369.665,6.735 369.769,7.151 L370.861,7.151 C370.783,6.241 370.081,5.253 368.378,5.253 C366.688,5.253 365.999,6.176 365.999,7.099 C365.999,7.996 366.389,8.581 368.274,9.036 C369.535,9.335 369.834,9.621 369.834,10.245 C369.834,10.843 369.457,11.259 368.495,11.259 C367.598,11.259 367.065,10.83 366.883,10.115 L365.739,10.115 Z M373.288,5.89 C373.678,5.058 374.042,3.537 374.12,2.458 L372.937,2.458 C372.911,3.29 372.69,4.772 372.339,5.89 L373.288,5.89 Z M384.486,7.411 L384.486,10.557 C384.486,11.168 384.538,11.805 384.577,12 L383.485,12 C383.433,11.857 383.394,11.545 383.381,11.142 C383.147,11.571 382.614,12.156 381.34,12.156 C379.78,12.156 379.117,11.142 379.117,10.141 C379.117,8.672 380.274,7.996 382.237,7.996 L383.355,7.996 L383.355,7.437 C383.355,6.852 383.173,6.15 381.938,6.15 C380.846,6.15 380.651,6.696 380.534,7.203 L379.429,7.203 C379.52,6.293 380.079,5.253 381.977,5.253 C383.589,5.253 384.486,5.916 384.486,7.411 Z M383.368,8.997 L383.368,8.789 L382.302,8.789 C380.989,8.789 380.287,9.153 380.287,10.076 C380.287,10.765 380.755,11.259 381.574,11.259 C383.16,11.259 383.368,10.193 383.368,8.997 Z M387.94,14.587 L386.809,14.587 L386.809,7.021 C386.809,6.475 386.809,5.916 386.796,5.409 L387.901,5.409 C387.927,5.63 387.94,6.02 387.94,6.449 C388.304,5.773 388.967,5.253 390.098,5.253 C391.619,5.253 392.724,6.527 392.724,8.529 C392.724,10.895 391.463,12.156 389.864,12.156 C388.798,12.156 388.239,11.714 387.94,11.181 L387.94,14.587 Z M391.554,8.581 C391.554,7.177 390.917,6.228 389.799,6.228 C388.434,6.228 387.888,7.086 387.888,8.698 C387.888,10.245 388.33,11.194 389.708,11.194 C390.917,11.194 391.554,10.206 391.554,8.581 Z M395.71,14.587 L394.579,14.587 L394.579,7.021 C394.579,6.475 394.579,5.916 394.566,5.409 L395.671,5.409 C395.697,5.63 395.71,6.02 395.71,6.449 C396.074,5.773 396.737,5.253 397.868,5.253 C399.389,5.253 400.494,6.527 400.494,8.529 C400.494,10.895 399.233,12.156 397.634,12.156 C396.568,12.156 396.009,11.714 395.71,11.181 L395.71,14.587 Z M399.324,8.581 C399.324,7.177 398.687,6.228 397.569,6.228 C396.204,6.228 395.658,7.086 395.658,8.698 C395.658,10.245 396.1,11.194 397.478,11.194 C398.687,11.194 399.324,10.206 399.324,8.581 Z M411.432,7.307 L411.432,11.402 C411.432,13.521 410.561,14.717 408.403,14.717 C406.401,14.717 405.79,13.599 405.673,12.702 L406.83,12.702 C407.025,13.43 407.61,13.807 408.455,13.807 C409.95,13.807 410.314,12.858 410.314,11.35 L410.314,10.817 C409.963,11.545 409.365,11.974 408.26,11.974 C406.635,11.974 405.53,10.648 405.53,8.711 C405.53,6.566 406.791,5.253 408.377,5.253 C409.638,5.253 410.171,5.838 410.314,6.28 C410.327,5.981 410.366,5.539 410.379,5.409 L411.445,5.409 C411.445,5.786 411.432,6.683 411.432,7.307 Z M406.713,8.659 C406.713,10.05 407.441,10.999 408.52,10.999 C409.937,10.999 410.353,10.037 410.353,8.581 C410.353,7.099 409.963,6.215 408.559,6.215 C407.337,6.215 406.713,7.242 406.713,8.659 Z M419.059,8.906 L414.405,8.906 C414.418,10.245 415.094,11.207 416.212,11.207 C417.252,11.207 417.59,10.661 417.798,10.18 L418.955,10.18 C418.695,11.025 417.98,12.156 416.173,12.156 C414.106,12.156 413.261,10.466 413.261,8.776 C413.261,6.813 414.249,5.253 416.251,5.253 C418.383,5.253 419.072,6.956 419.072,8.36 C419.072,8.568 419.072,8.737 419.059,8.906 Z M414.444,8.113 L417.915,8.113 C417.902,7.021 417.356,6.15 416.238,6.15 C415.068,6.15 414.561,6.956 414.444,8.113 Z M420.888,12 L422.032,12 L422.032,8.516 C422.032,7.19 422.526,6.241 423.774,6.241 C424.775,6.241 425.165,6.904 425.165,7.905 L425.165,12 L426.309,12 L426.309,7.762 C426.309,6.007 425.347,5.253 424.099,5.253 C422.825,5.253 422.292,5.929 422.032,6.488 C422.032,6.293 422.019,5.604 421.98,5.409 L420.875,5.409 C420.888,5.916 420.888,6.501 420.888,7.073 L420.888,12 Z M433.936,8.906 L429.282,8.906 C429.295,10.245 429.971,11.207 431.089,11.207 C432.129,11.207 432.467,10.661 432.675,10.18 L433.832,10.18 C433.572,11.025 432.857,12.156 431.05,12.156 C428.983,12.156 428.138,10.466 428.138,8.776 C428.138,6.813 429.126,5.253 431.128,5.253 C433.26,5.253 433.949,6.956 433.949,8.36 C433.949,8.568 433.949,8.737 433.936,8.906 Z M429.321,8.113 L432.792,8.113 C432.779,7.021 432.233,6.15 431.115,6.15 C429.945,6.15 429.438,6.956 429.321,8.113 Z M435.765,12 L436.909,12 L436.909,8.802 C436.909,7.138 437.767,6.423 439.119,6.384 L439.119,5.253 C438.027,5.279 437.247,5.864 436.909,6.748 C436.909,6.111 436.883,5.591 436.87,5.409 L435.752,5.409 C435.752,5.76 435.765,6.28 435.765,7.203 L435.765,12 Z M445.394,7.411 L445.394,10.557 C445.394,11.168 445.446,11.805 445.485,12 L444.393,12 C444.341,11.857 444.302,11.545 444.289,11.142 C444.055,11.571 443.522,12.156 442.248,12.156 C440.688,12.156 440.025,11.142 440.025,10.141 C440.025,8.672 441.182,7.996 443.145,7.996 L444.263,7.996 L444.263,7.437 C444.263,6.852 444.081,6.15 442.846,6.15 C441.754,6.15 441.559,6.696 441.442,7.203 L440.337,7.203 C440.428,6.293 440.987,5.253 442.885,5.253 C444.497,5.253 445.394,5.916 445.394,7.411 Z M444.276,8.997 L444.276,8.789 L443.21,8.789 C441.897,8.789 441.195,9.153 441.195,10.076 C441.195,10.765 441.663,11.259 442.482,11.259 C444.068,11.259 444.276,10.193 444.276,8.997 Z M446.781,6.332 L447.925,6.332 L447.925,10.466 C447.925,11.558 448.367,12.091 449.394,12.091 C449.719,12.091 450.109,12.078 450.382,11.974 L450.382,11.116 C450.2,11.155 449.966,11.168 449.81,11.168 C449.212,11.168 449.056,10.843 449.056,10.193 L449.056,6.332 L450.512,6.332 L450.512,5.409 L449.056,5.409 L449.056,3.459 L447.925,3.459 L447.925,5.409 L446.781,5.409 L446.781,6.332 Z M454.681,5.253 C456.514,5.253 457.71,6.618 457.71,8.685 C457.71,10.596 456.618,12.156 454.603,12.156 C452.718,12.156 451.574,10.7 451.574,8.711 C451.574,6.761 452.692,5.253 454.681,5.253 Z M454.629,6.202 C453.394,6.202 452.744,7.203 452.744,8.698 C452.744,10.154 453.472,11.207 454.655,11.207 C455.851,11.207 456.54,10.206 456.54,8.711 C456.54,7.229 455.864,6.202 454.629,6.202 Z M459.552,12 L459.552,7.203 C459.552,6.28 459.539,5.76 459.539,5.409 L460.657,5.409 C460.67,5.591 460.696,6.111 460.696,6.748 C461.034,5.864 461.814,5.279 462.906,5.253 L462.906,6.384 C461.554,6.423 460.696,7.138 460.696,8.802 L460.696,12 L459.552,12 Z M463.825,13.495 L462.889,13.495 C463.578,12.039 463.76,10.908 463.825,10.089 L464.982,10.089 C464.865,11.246 464.449,12.598 463.825,13.495 Z M471.903,12 L471.903,6.332 L473.229,6.332 L473.229,5.409 L471.903,5.409 L471.903,4.694 C471.903,3.732 472.163,3.316 472.839,3.316 C473.008,3.316 473.255,3.342 473.411,3.381 L473.411,2.406 C473.255,2.354 472.93,2.328 472.683,2.328 C471.227,2.328 470.759,3.407 470.759,4.616 L470.759,5.409 L469.706,5.409 L469.706,6.332 L470.759,6.332 L470.759,12 L471.903,12 Z M477.203,5.253 C479.036,5.253 480.232,6.618 480.232,8.685 C480.232,10.596 479.14,12.156 477.125,12.156 C475.24,12.156 474.096,10.7 474.096,8.711 C474.096,6.761 475.214,5.253 477.203,5.253 Z M477.151,6.202 C475.916,6.202 475.266,7.203 475.266,8.698 C475.266,10.154 475.994,11.207 477.177,11.207 C478.373,11.207 479.062,10.206 479.062,8.711 C479.062,7.229 478.386,6.202 477.151,6.202 Z M482.074,12 L483.218,12 L483.218,8.802 C483.218,7.138 484.076,6.423 485.428,6.384 L485.428,5.253 C484.336,5.279 483.556,5.864 483.218,6.748 C483.218,6.111 483.192,5.591 483.179,5.409 L482.061,5.409 C482.061,5.76 482.074,6.28 482.074,7.203 L482.074,12 Z M494.728,9.985 C494.455,10.765 493.974,11.207 493.155,11.207 C492.011,11.207 491.374,10.206 491.374,8.698 C491.374,7.203 492.037,6.202 493.194,6.202 C494.156,6.202 494.572,6.787 494.728,7.45 L495.859,7.45 C495.781,6.605 495.118,5.253 493.22,5.253 C491.257,5.253 490.204,6.878 490.204,8.737 C490.204,10.856 491.322,12.156 493.142,12.156 C494.819,12.156 495.586,11.116 495.859,9.985 L494.728,9.985 Z M500.301,5.253 C502.134,5.253 503.33,6.618 503.33,8.685 C503.33,10.596 502.238,12.156 500.223,12.156 C498.338,12.156 497.194,10.7 497.194,8.711 C497.194,6.761 498.312,5.253 500.301,5.253 Z M500.249,6.202 C499.014,6.202 498.364,7.203 498.364,8.698 C498.364,10.154 499.092,11.207 500.275,11.207 C501.471,11.207 502.16,10.206 502.16,8.711 C502.16,7.229 501.484,6.202 500.249,6.202 Z M508.981,6.332 L508.981,12 L510.125,12 L510.125,6.332 L511.425,6.332 L511.425,5.409 L510.125,5.409 L510.125,4.59 C510.125,3.706 510.359,3.29 510.996,3.29 C511.165,3.29 511.373,3.316 511.542,3.368 L511.542,2.419 C511.373,2.354 511.126,2.328 510.892,2.328 C509.397,2.328 508.981,3.407 508.981,4.629 L508.981,5.409 L506.589,5.409 L506.589,4.59 C506.589,3.706 506.823,3.29 507.46,3.29 C507.629,3.29 507.837,3.316 508.006,3.368 L508.006,2.419 C507.837,2.354 507.59,2.328 507.356,2.328 C505.848,2.328 505.445,3.407 505.445,4.629 L505.445,5.409 L504.392,5.409 L504.392,6.332 L505.445,6.332 L505.445,12 L506.589,12 L506.589,6.332 L508.981,6.332 Z M518.116,8.906 L513.462,8.906 C513.475,10.245 514.151,11.207 515.269,11.207 C516.309,11.207 516.647,10.661 516.855,10.18 L518.012,10.18 C517.752,11.025 517.037,12.156 515.23,12.156 C513.163,12.156 512.318,10.466 512.318,8.776 C512.318,6.813 513.306,5.253 515.308,5.253 C517.44,5.253 518.129,6.956 518.129,8.36 C518.129,8.568 518.129,8.737 518.116,8.906 Z M513.501,8.113 L516.972,8.113 C516.959,7.021 516.413,6.15 515.295,6.15 C514.125,6.15 513.618,6.956 513.501,8.113 Z M525.353,8.906 L520.699,8.906 C520.712,10.245 521.388,11.207 522.506,11.207 C523.546,11.207 523.884,10.661 524.092,10.18 L525.249,10.18 C524.989,11.025 524.274,12.156 522.467,12.156 C520.4,12.156 519.555,10.466 519.555,8.776 C519.555,6.813 520.543,5.253 522.545,5.253 C524.677,5.253 525.366,6.956 525.366,8.36 C525.366,8.568 525.366,8.737 525.353,8.906 Z M520.738,8.113 L524.209,8.113 C524.196,7.021 523.65,6.15 522.532,6.15 C521.362,6.15 520.855,6.956 520.738,8.113 Z M526.701,10.115 C526.87,11.298 527.715,12.156 529.418,12.156 C531.056,12.156 531.979,11.311 531.979,10.154 C531.979,9.179 531.576,8.516 529.574,8.035 C528.365,7.749 528.092,7.502 528.092,7.008 C528.092,6.579 528.378,6.137 529.301,6.137 C530.302,6.137 530.627,6.735 530.731,7.151 L531.823,7.151 C531.745,6.241 531.043,5.253 529.34,5.253 C527.65,5.253 526.961,6.176 526.961,7.099 C526.961,7.996 527.351,8.581 529.236,9.036 C530.497,9.335 530.796,9.621 530.796,10.245 C530.796,10.843 530.419,11.259 529.457,11.259 C528.56,11.259 528.027,10.83 527.845,10.115 L526.701,10.115 Z M537.903,9.985 C537.63,10.765 537.149,11.207 536.33,11.207 C535.186,11.207 534.549,10.206 534.549,8.698 C534.549,7.203 535.212,6.202 536.369,6.202 C537.331,6.202 537.747,6.787 537.903,7.45 L539.034,7.45 C538.956,6.605 538.293,5.253 536.395,5.253 C534.432,5.253 533.379,6.878 533.379,8.737 C533.379,10.856 534.497,12.156 536.317,12.156 C537.994,12.156 538.761,11.116 539.034,9.985 L537.903,9.985 Z M540.772,12 L541.916,12 L541.916,8.802 C541.916,7.138 542.774,6.423 544.126,6.384 L544.126,5.253 C543.034,5.279 542.254,5.864 541.916,6.748 C541.916,6.111 541.89,5.591 541.877,5.409 L540.759,5.409 C540.759,5.76 540.772,6.28 540.772,7.203 L540.772,12 Z M545.617,12 L546.761,12 L546.761,5.409 L545.617,5.409 L545.617,12 Z M546.761,3.875 L546.761,2.458 L545.617,2.458 L545.617,3.875 L546.761,3.875 Z M550.189,14.587 L549.058,14.587 L549.058,7.021 C549.058,6.475 549.058,5.916 549.045,5.409 L550.15,5.409 C550.176,5.63 550.189,6.02 550.189,6.449 C550.553,5.773 551.216,5.253 552.347,5.253 C553.868,5.253 554.973,6.527 554.973,8.529 C554.973,10.895 553.712,12.156 552.113,12.156 C551.047,12.156 550.488,11.714 550.189,11.181 L550.189,14.587 Z M553.803,8.581 C553.803,7.177 553.166,6.228 552.048,6.228 C550.683,6.228 550.137,7.086 550.137,8.698 C550.137,10.245 550.579,11.194 551.957,11.194 C553.166,11.194 553.803,10.206 553.803,8.581 Z M555.983,6.332 L557.127,6.332 L557.127,10.466 C557.127,11.558 557.569,12.091 558.596,12.091 C558.921,12.091 559.311,12.078 559.584,11.974 L559.584,11.116 C559.402,11.155 559.168,11.168 559.012,11.168 C558.414,11.168 558.258,10.843 558.258,10.193 L558.258,6.332 L559.714,6.332 L559.714,5.409 L558.258,5.409 L558.258,3.459 L557.127,3.459 L557.127,5.409 L555.983,5.409 L555.983,6.332 Z" id="express’-app-generat-copy" fill="#9B9B9B" opacity="0.5"></path>
                <path d="M8.245,7.954 L2.159,7.954 C2.176,9.705 3.06,10.963 4.522,10.963 C5.882,10.963 6.324,10.249 6.596,9.62 L8.109,9.62 C7.769,10.725 6.834,12.204 4.471,12.204 C1.768,12.204 0.663,9.994 0.663,7.784 C0.663,5.217 1.955,3.177 4.573,3.177 C7.361,3.177 8.262,5.404 8.262,7.24 C8.262,7.512 8.262,7.733 8.245,7.954 Z M2.21,6.917 L6.749,6.917 C6.732,5.489 6.018,4.35 4.556,4.35 C3.026,4.35 2.363,5.404 2.21,6.917 Z M10.937,9.535 C11.158,11.082 12.263,12.204 14.49,12.204 C16.632,12.204 17.839,11.099 17.839,9.586 C17.839,8.311 17.312,7.444 14.694,6.815 C13.113,6.441 12.756,6.118 12.756,5.472 C12.756,4.911 13.13,4.333 14.337,4.333 C15.646,4.333 16.071,5.115 16.207,5.659 L17.635,5.659 C17.533,4.469 16.615,3.177 14.388,3.177 C12.178,3.177 11.277,4.384 11.277,5.591 C11.277,6.764 11.787,7.529 14.252,8.124 C15.901,8.515 16.292,8.889 16.292,9.705 C16.292,10.487 15.799,11.031 14.541,11.031 C13.368,11.031 12.671,10.47 12.433,9.535 L10.937,9.535 Z M22.537,15.383 L21.058,15.383 L21.058,5.489 C21.058,4.775 21.058,4.044 21.041,3.381 L22.486,3.381 C22.52,3.67 22.537,4.18 22.537,4.741 C23.013,3.857 23.88,3.177 25.359,3.177 C27.348,3.177 28.793,4.843 28.793,7.461 C28.793,10.555 27.144,12.204 25.053,12.204 C23.659,12.204 22.928,11.626 22.537,10.929 L22.537,15.383 Z M27.263,7.529 C27.263,5.693 26.43,4.452 24.968,4.452 C23.183,4.452 22.469,5.574 22.469,7.682 C22.469,9.705 23.047,10.946 24.849,10.946 C26.43,10.946 27.263,9.654 27.263,7.529 Z M32.1479999,12 L33.6439999,12 L33.6439999,7.818 C33.6439999,5.642 34.7659999,4.707 36.5339999,4.656 L36.5339999,3.177 C35.1059999,3.211 34.0859999,3.976 33.6439999,5.132 C33.6439999,4.299 33.6099999,3.619 33.5929999,3.381 L32.1309999,3.381 C32.1309999,3.84 32.1479999,4.52 32.1479999,5.727 L32.1479999,12 Z M46.3659999,7.954 L40.2799999,7.954 C40.2969999,9.705 41.1809999,10.963 42.6429999,10.963 C44.0029999,10.963 44.4449999,10.249 44.7169999,9.62 L46.2299999,9.62 C45.8899999,10.725 44.9549999,12.204 42.5919999,12.204 C39.8889999,12.204 38.7839999,9.994 38.7839999,7.784 C38.7839999,5.217 40.0759999,3.177 42.6939999,3.177 C45.4819999,3.177 46.3829999,5.404 46.3829999,7.24 C46.3829999,7.512 46.3829999,7.733 46.3659999,7.954 Z M40.3309999,6.917 L44.8699999,6.917 C44.8529999,5.489 44.1389999,4.35 42.6769999,4.35 C41.1469999,4.35 40.4839999,5.404 40.3309999,6.917 Z M49.0579999,9.535 C49.2789999,11.082 50.3839999,12.204 52.6109999,12.204 C54.7529999,12.204 55.9599999,11.099 55.9599999,9.586 C55.9599999,8.311 55.4329999,7.444 52.8149999,6.815 C51.2339999,6.441 50.8769999,6.118 50.8769999,5.472 C50.8769999,4.911 51.2509999,4.333 52.4579999,4.333 C53.7669999,4.333 54.1919999,5.115 54.3279999,5.659 L55.7559999,5.659 C55.6539999,4.469 54.7359999,3.177 52.5089999,3.177 C50.2989999,3.177 49.3979999,4.384 49.3979999,5.591 C49.3979999,6.764 49.9079999,7.529 52.3729999,8.124 C54.0219999,8.515 54.4129999,8.889 54.4129999,9.705 C54.4129999,10.487 53.9199999,11.031 52.6619999,11.031 C51.4889999,11.031 50.7919999,10.47 50.5539999,9.535 L49.0579999,9.535 Z M58.6179999,9.535 C58.8389999,11.082 59.9439999,12.204 62.1709999,12.204 C64.3129999,12.204 65.5199999,11.099 65.5199999,9.586 C65.5199999,8.311 64.9929999,7.444 62.3749999,6.815 C60.7939999,6.441 60.4369999,6.118 60.4369999,5.472 C60.4369999,4.911 60.8109999,4.333 62.0179999,4.333 C63.3269999,4.333 63.7519999,5.115 63.8879999,5.659 L65.3159999,5.659 C65.2139999,4.469 64.2959999,3.177 62.0689999,3.177 C59.8589999,3.177 58.9579999,4.384 58.9579999,5.591 C58.9579999,6.764 59.4679999,7.529 61.9329999,8.124 C63.5819999,8.515 63.9729999,8.889 63.9729999,9.705 C63.9729999,10.487 63.4799999,11.031 62.2219999,11.031 C61.0489999,11.031 60.3519999,10.47 60.1139999,9.535 L58.6179999,9.535 Z M72.2749998,3.177 C74.6719998,3.177 76.2359998,4.962 76.2359998,7.665 C76.2359998,10.164 74.8079998,12.204 72.1729998,12.204 C69.7079998,12.204 68.2119998,10.3 68.2119998,7.699 C68.2119998,5.149 69.6739998,3.177 72.2749998,3.177 Z M72.2069998,4.418 C70.5919998,4.418 69.7419998,5.727 69.7419998,7.682 C69.7419998,9.586 70.6939998,10.963 72.2409998,10.963 C73.8049998,10.963 74.7059998,9.654 74.7059998,7.699 C74.7059998,5.761 73.8219998,4.418 72.2069998,4.418 Z" id="espresso-copy" fill="#DA7720"></path>
            </g>
        </g>
    </g>
</svg>